<svg width="817" height="432" viewBox="0 0 817 432" fill="none" xmlns="http://www.w3.org/2000/svg">
<path d="M402.596 0C418.708 9.89577e-05 431.77 13.0618 431.77 29.1738C431.769 44.4176 420.077 56.9271 405.172 58.2314V128.387C484.544 129.651 548.464 189.239 548.464 262.562C548.464 266.174 548.305 269.753 548.001 273.292C704.841 284.697 816.859 314.773 816.86 350.083C816.859 395.197 633.999 431.77 408.43 431.77C182.861 431.769 0.00125775 395.197 0 350.083C0.000936275 315.649 106.53 286.193 257.269 274.176C256.912 270.348 256.728 266.475 256.728 262.562C256.728 190.245 318.905 131.288 396.761 128.47V57.7627C383.445 55.0596 373.422 43.2876 373.422 29.1738C373.422 13.0617 386.484 0 402.596 0Z" fill="#ABF79E"/>
<path d="M547.615 274.361C530.475 272.72 506.407 271.443 490.909 272.72" stroke="black" stroke-width="2.52327" stroke-linecap="round"/>
<path d="M115.351 339.291C122.905 341.295 129.122 345.245 133.083 349.947C137.047 354.653 138.684 360.011 137.373 364.956C136.061 369.9 131.984 373.743 126.208 375.865C120.438 377.986 113.08 378.334 105.526 376.33C97.9718 374.326 91.7548 370.378 87.7938 365.675C83.8298 360.97 82.1929 355.611 83.5043 350.667C84.8159 345.722 88.8934 341.88 94.6687 339.757C100.44 337.637 107.796 337.288 115.351 339.291Z" fill="#FFA6BB" stroke="black" stroke-width="2.52327"/>
<path d="M249.554 353.629C257.353 354.146 264.213 356.829 269.002 360.683C273.796 364.541 276.431 369.486 276.092 374.59C275.754 379.694 272.49 384.248 267.229 387.439C261.972 390.628 254.819 392.381 247.02 391.864C239.222 391.347 232.363 388.665 227.573 384.811C222.779 380.953 220.145 376.008 220.483 370.904C220.821 365.8 224.086 361.246 229.346 358.055C234.603 354.866 241.756 353.112 249.554 353.629Z" fill="#FFA6BB" stroke="black" stroke-width="2.52327"/>
<path d="M398.653 360.978C406.459 361.362 413.363 363.928 418.217 367.701C423.076 371.477 425.794 376.376 425.542 381.486C425.29 386.595 422.104 391.203 416.898 394.483C411.696 397.761 404.573 399.635 396.767 399.251C388.961 398.866 382.057 396.301 377.203 392.528C372.345 388.752 369.627 383.853 369.878 378.744C370.13 373.634 373.317 369.026 378.522 365.746C383.724 362.468 390.846 360.593 398.653 360.978Z" fill="#FFA6BB" stroke="black" stroke-width="2.52327"/>
<path d="M545.835 361.037C553.616 360.311 560.815 361.872 566.155 364.919C571.5 367.968 574.885 372.432 575.36 377.526C575.835 382.619 573.334 387.633 568.646 391.617C563.962 395.599 557.176 398.465 549.395 399.191C541.613 399.917 534.415 398.356 529.075 395.31C523.731 392.261 520.345 387.796 519.87 382.703C519.395 377.61 521.896 372.596 526.584 368.611C531.268 364.629 538.053 361.763 545.835 361.037Z" fill="#FFA6BB" stroke="black" stroke-width="2.52327"/>
<path d="M681.674 343.41C689.456 342.684 696.654 344.245 701.995 347.292C707.339 350.341 710.725 354.805 711.2 359.899C711.675 364.992 709.174 370.006 704.486 373.991C699.801 377.972 693.016 380.838 685.234 381.564C677.453 382.29 670.255 380.729 664.915 377.683C659.57 374.634 656.185 370.169 655.71 365.076C655.234 359.983 657.735 354.969 662.424 350.984C667.108 347.002 673.893 344.136 681.674 343.41Z" fill="#FFA6BB" stroke="black" stroke-width="2.52327"/>
<mask id="mask0_18_76" style="mask-type:alpha" maskUnits="userSpaceOnUse" x="0" y="0" width="817" height="432">
<mask id="path-8-inside-1_18_76" fill="white">
<path d="M402.596 0C418.708 9.89577e-05 431.77 13.0618 431.77 29.1738C431.769 44.4176 420.077 56.9271 405.172 58.2314V128.387C484.544 129.651 548.464 189.239 548.464 262.562C548.464 266.174 548.305 269.753 548.001 273.292C704.841 284.697 816.859 314.773 816.86 350.083C816.859 395.197 633.999 431.77 408.43 431.77C182.861 431.769 0.00125775 395.197 0 350.083C0.000936275 315.649 106.53 286.193 257.269 274.176C256.912 270.348 256.728 266.475 256.728 262.562C256.728 190.245 318.905 131.288 396.761 128.47V57.7627C383.445 55.0596 373.422 43.2876 373.422 29.1738C373.422 13.0617 386.484 0 402.596 0Z"/>
</mask>
<path d="M402.596 0L402.596 -2.52H402.596V0ZM431.77 29.1738L434.29 29.1738V29.1738H431.77ZM405.172 58.2314L404.952 55.721L402.652 55.9223V58.2314H405.172ZM405.172 128.387H402.652V130.867L405.132 130.906L405.172 128.387ZM548.464 262.562L550.984 262.563L550.984 262.562L548.464 262.562ZM548.001 273.292L545.49 273.076L545.271 275.62L547.818 275.805L548.001 273.292ZM816.86 350.083L819.38 350.083L819.38 350.083L816.86 350.083ZM408.43 431.77L408.43 434.29H408.43V431.77ZM0 350.083L-2.52 350.083L-2.52 350.083L0 350.083ZM257.269 274.176L257.469 276.688L260.015 276.485L259.778 273.942L257.269 274.176ZM256.728 262.562L254.208 262.562L254.208 262.563L256.728 262.562ZM396.761 128.47L396.852 130.988L399.281 130.9V128.47H396.761ZM396.761 57.7627H399.281V55.7029L397.262 55.2931L396.761 57.7627ZM373.422 29.1738L370.902 29.1738L370.902 29.1738L373.422 29.1738ZM402.596 0L402.596 2.52C417.316 2.52009 429.25 14.4535 429.25 29.1738H431.77H434.29C434.29 11.67 420.099 -2.51989 402.596 -2.52L402.596 0ZM431.77 29.1738L429.25 29.1738C429.249 43.099 418.568 54.5295 404.952 55.721L405.172 58.2314L405.392 60.7419C421.586 59.3246 434.289 45.7361 434.29 29.1738L431.77 29.1738ZM405.172 58.2314H402.652V128.387H405.172H407.692V58.2314H405.172ZM405.172 128.387L405.132 130.906C483.327 132.152 545.944 190.806 545.944 262.563L548.464 262.562L550.984 262.562C550.984 187.671 485.76 127.151 405.212 125.867L405.172 128.387ZM548.464 262.562L545.944 262.562C545.944 266.1 545.789 269.607 545.49 273.076L548.001 273.292L550.512 273.508C550.822 269.898 550.984 266.248 550.984 262.563L548.464 262.562ZM548.001 273.292L547.818 275.805C626.149 281.501 693.18 291.854 740.564 305.15C764.276 311.803 782.923 319.153 795.586 326.939C808.405 334.82 814.34 342.666 814.34 350.083L816.86 350.083L819.38 350.083C819.38 339.845 811.312 330.691 798.226 322.645C784.985 314.504 765.824 307.002 741.926 300.297C694.091 286.875 626.692 276.488 548.184 270.779L548.001 273.292ZM816.86 350.083L814.34 350.083C814.34 354.806 811.958 359.703 806.801 364.743C801.639 369.788 793.891 374.775 783.686 379.601C763.288 389.246 733.612 397.998 696.739 405.373C623.034 420.114 521.1 429.25 408.43 429.25V431.77V434.29C521.328 434.29 623.609 425.139 697.727 410.315C734.765 402.907 764.902 394.058 785.84 384.157C796.303 379.21 804.604 373.938 810.323 368.348C816.047 362.753 819.38 356.639 819.38 350.083L816.86 350.083ZM408.43 431.77L408.43 429.25C295.759 429.25 193.826 420.114 120.121 405.373C83.2482 397.998 53.5718 389.246 33.1743 379.601C22.9691 374.775 15.2213 369.788 10.0596 364.743C4.90211 359.703 2.52013 354.806 2.52 350.083L0 350.083L-2.52 350.083C-2.51982 356.639 0.812847 362.753 6.53684 368.348C12.2566 373.938 20.5572 379.21 31.0198 384.157C51.9579 394.058 82.0947 402.907 119.133 410.315C193.251 425.139 295.531 434.29 408.43 434.29L408.43 431.77ZM0 350.083L2.52 350.083C2.5202 342.854 8.1548 335.213 20.3462 327.517C32.3985 319.908 50.1663 312.702 72.8087 306.144C118.056 293.039 182.187 282.69 257.469 276.688L257.269 274.176L257.068 271.664C181.612 277.679 117.109 288.067 71.4066 301.303C48.5743 307.916 30.2885 315.28 17.6558 323.255C5.16213 331.142 -2.51973 340.095 -2.52 350.083L0 350.083ZM257.269 274.176L259.778 273.942C259.428 270.191 259.248 266.396 259.248 262.562L256.728 262.562L254.208 262.563C254.208 266.554 254.396 270.506 254.759 274.41L257.269 274.176ZM256.728 262.562L259.248 262.563C259.248 191.789 320.155 133.764 396.852 130.988L396.761 128.47L396.67 125.951C317.655 128.811 254.208 188.7 254.208 262.562L256.728 262.562ZM396.761 128.47H399.281V57.7627H396.761H394.241V128.47H396.761ZM396.761 57.7627L397.262 55.2931C385.097 52.8236 375.942 42.0654 375.942 29.1738L373.422 29.1738L370.902 29.1738C370.902 44.5098 381.792 57.2955 396.259 60.2323L396.761 57.7627ZM373.422 29.1738H375.942C375.942 14.4535 387.875 2.52 402.596 2.52V0V-2.52C385.092 -2.52 370.902 11.6699 370.902 29.1738H373.422Z" fill="black" mask="url(#path-8-inside-1_18_76)"/>
<path d="M547.615 274.361C530.475 272.72 506.407 271.443 490.909 272.72" stroke="black" stroke-width="2.52327" stroke-linecap="round"/>
</mask>
<g mask="url(#mask0_18_76)">
<path d="M489.451 175.125L404.939 134.587L409.116 78.9323L454.475 33.5718L435.808 -19.9398L368.607 -8.73973L358.652 33.5718L381.052 85.839L332.518 113.217L244.162 169.218L229.228 235.174L267.328 288.43L92.338 324.775L10.2038 309.841L-13.4408 338.464L15.6173 365.907H159.862L409.116 407.45L717.222 338.464H830.301L807.901 294.908L707.1 271.263L583.899 246.374C583.899 246.374 537.907 210.461 531.89 187.061C525.872 163.661 489.451 175.125 489.451 175.125Z" fill="black"/>
</g>
</svg>
