<svg width="960" height="847" viewBox="0 0 960 847" fill="none" xmlns="http://www.w3.org/2000/svg">
<g clip-path="url(#clip0_13_219)">
<path d="M366.75 606.873C366.75 606.873 395.76 653.708 374.089 662.419C352.419 671.102 342.855 614.463 342.855 614.463C317.92 620.012 293.1 602.819 293.1 602.819C293.1 602.819 303.588 654.226 282.178 650.488C260.739 646.722 263.888 582.578 263.888 582.578C255.335 574.988 247.65 563.804 240.975 551.384C226.731 567.398 200.379 593.762 197.288 573.551C194.225 553.569 217.196 537.986 231.093 530.626C218.438 500.897 211.301 471.456 211.214 470.45C211.214 470.45 391.108 543.535 394.951 563.344C398.794 583.182 366.779 606.902 366.779 606.902L366.75 606.873Z" fill="#FFA6BB"/>
<path d="M219.738 429.279C188.07 418.67 100.204 331.497 65.8203 287.71C56.6032 275.979 51.2289 267.354 51.8068 264.163C54.7251 247.746 73.5639 252.634 73.5639 252.634C73.5639 252.634 76.5978 255.624 81.7987 260.713C109.103 287.422 196.045 372.036 216.04 386.066C239.848 402.799 259.872 442.706 219.738 429.279Z" fill="white"/>
<path d="M657.567 664.116C615.874 698.473 315.319 561.217 210.434 495.693C190.555 483.273 177.726 473.44 175.01 467.834C172.728 463.147 172.41 454.551 173.623 443.137C174.288 436.812 175.444 429.595 177.004 421.689C185.325 379.569 205.32 317.869 226.557 264.45C237.566 236.792 248.892 211.347 259.121 191.998C260.941 188.519 262.761 185.242 264.524 182.194C271.949 169.256 278.595 160.228 283.825 156.807C285.298 155.858 288.13 155.37 292.233 155.312C338.203 154.795 539.998 209.364 667.42 257.838C718.909 277.417 758.263 296.019 770.254 309.589C814.606 359.731 707.178 623.203 657.596 664.058L657.567 664.116Z" fill="white"/>
<path d="M746.503 842.774C743.816 841.451 736.881 832.395 727.462 818.451C689.466 762.3 610.702 627.142 603.507 601.813C595.763 574.5 634.539 559.319 653.031 585.597C668.865 608.138 730.033 751.375 752.773 800.97C756.587 809.279 759.303 814.943 760.574 817.013C769.387 831.36 760.083 849.386 746.532 842.745L746.503 842.774Z" fill="white"/>
<path d="M841.737 740.449C838.79 738.58 832.087 731.594 823.072 721.129C783.227 674.955 697.672 561.188 685.537 522.662L733.876 475.769C733.876 475.769 823.187 662.103 844.482 702.757C845.84 705.373 846.938 707.357 847.689 708.68C860.403 730.616 857.773 750.57 841.737 740.421V740.449Z" fill="white"/>
<path d="M262.848 494.572C250.106 496.786 231.671 496.93 210.434 495.693C147.648 492.013 60.5905 476.114 25.6289 464.872C18.8966 462.716 14.1003 460.704 11.7598 459.007C-6.73225 445.494 9.47723 432.269 9.47723 432.269C16.065 433.793 23.2307 434.828 30.8876 435.518C67.1495 438.68 113.524 433.103 152.618 426.289C161.141 424.794 169.347 423.241 177.004 421.717C207.603 415.593 229.735 409.728 231.729 409.153C231.729 409.153 253.255 427.439 268.222 447.219C283.651 467.604 292.117 489.541 262.877 494.601L262.848 494.572Z" fill="white"/>
<path d="M268.222 447.191C245.136 461.48 201.708 457.685 173.595 443.137C164.666 438.508 157.298 432.815 152.618 426.26C161.141 424.765 169.347 423.212 177.004 421.689C185.326 379.569 205.32 317.869 226.557 264.45C232.249 268.849 238.057 278.078 243.518 293.776C268.713 365.969 303.993 425.024 268.222 447.191Z" fill="#242C3D"/>
<path d="M750.028 122.68C743.093 131.535 675.251 246.366 650.777 285.611C626.275 324.827 755.402 365.394 760.748 351.795C766.093 338.196 808.712 156.203 808.712 156.203L750.057 122.709L750.028 122.68Z" fill="white"/>
<path d="M909.985 139.586C881.842 165.921 847.834 186.909 824.777 192.458C775.426 204.304 714.171 174.115 733.472 108.793C742.66 77.7138 812.699 59.2557 851.59 33.495C857.08 29.8724 861.963 26.0773 865.95 22.0809C898.167 -10.1488 943.184 -10.4076 958.469 43.7303C966.617 72.5961 942.144 109.57 910.014 139.586H909.985Z" fill="white"/>
<path d="M762.135 126.964C768.144 99.5641 646.819 103.791 634.106 137.803C615.671 187.139 752.253 172.016 762.135 126.964Z" fill="white"/>
<path d="M748.988 36.1685C741.158 37.2035 738.297 101.49 744.307 102.468C750.317 103.446 769.387 92.9802 769.965 86.6838C770.543 80.3873 756.674 35.1622 748.988 36.1973V36.1685Z" fill="white"/>
<path d="M292.204 155.341C293.071 173.224 291.973 186.535 292.031 187.226L261.519 215.775L252.533 224.17C252.533 224.17 256.404 215.746 260.132 202.118C261.721 196.34 263.281 189.612 264.495 182.194C267.153 166.122 268.222 146.773 264.61 126.647C262.588 115.32 258.716 106.407 253.746 99.7079C228.06 65.0056 172.757 89.0989 188.099 138.637C206.418 197.748 197.721 244.267 141.118 228.713C84.4858 213.188 83.7923 148.671 83.7923 148.671C83.7923 148.671 59.8393 156.663 55.2452 117.016C50.651 77.3398 67.4673 84.2975 67.4673 84.2975C97.3147 11.8166 108.323 60.4918 108.323 60.4918C108.323 60.4918 109.45 41.2574 124.388 47.1801C139.326 53.1028 106.879 102.468 102.718 130.931C98.5571 159.395 135.772 215.43 161.95 198.266C188.128 181.102 126.584 72.7109 211.33 57.1567C233.26 53.1315 249.297 58.0479 261.056 67.9095C284.489 87.6326 290.788 127.194 292.175 155.37L292.204 155.341Z" fill="white"/>
<path d="M667.363 257.866C648.928 284.576 603.189 309.992 574.96 337.247C535.895 374.911 432.917 489.541 349.934 450.267C282.871 418.555 270.418 304.385 261.519 215.746C261.056 211.117 260.594 206.575 260.161 202.09C259.814 198.668 259.467 195.304 259.121 191.998C260.941 188.519 262.761 185.242 264.524 182.194C267.182 166.122 268.251 146.773 264.639 126.647C262.617 115.32 258.745 106.407 253.775 99.7079C255.307 86.9425 258.023 76.4197 261.085 67.8807C284.518 87.6038 290.817 127.165 292.204 155.341C338.174 154.823 539.969 209.392 667.391 257.866H667.363Z" fill="#242C3D"/>
<path d="M909.985 139.585C889.499 145.22 866.442 148.239 848.932 141.425C808.509 125.698 809.925 92.2612 833.243 64.2579C841.044 54.8851 847.025 43.9023 851.561 33.4657C857.051 29.8431 861.934 26.048 865.922 22.0517C898.138 -10.178 943.155 -10.4368 958.44 43.701C966.588 72.5669 942.115 109.54 909.985 139.556V139.585Z" fill="#FFA6BB"/>
<path d="M873.145 79.3235C864.968 104.538 907.24 110.403 928.823 96.5741C950.378 82.7737 957.226 55.8629 936.509 69.0307C909.551 86.1663 878.721 62.2168 873.145 79.3235Z" fill="white"/>
<path d="M901.432 106.033C892.013 106.033 883.027 103.762 877.074 99.2191C870.516 94.2165 868.406 86.9138 871.065 78.6623C872.567 74.0621 875.745 71.5033 880.802 70.8133C884.934 70.267 889.932 70.9858 895.682 71.8196C907.384 73.5446 921.976 75.6722 935.325 67.1907C944.571 61.3255 948.471 63.1656 950.147 65.7531C952.199 68.9157 951.072 74.5222 947.084 81.1061C943.039 87.7763 936.972 93.929 929.979 98.3854C922.033 103.474 911.487 106.033 901.432 106.033ZM883.894 74.9534C879.213 74.9534 876.41 76.1897 875.196 79.9848C873.058 86.5688 874.59 91.8877 879.704 95.7978C890.539 104.107 913.828 103.589 927.639 94.7628C942.115 85.505 948.414 71.0721 946.507 68.082C945.986 67.2769 943.184 67.3344 937.665 70.842C922.958 80.1861 907.5 77.9148 895.075 76.1034C890.568 75.4422 886.87 74.9534 883.922 74.9534H883.894Z" fill="black"/>
<path d="M619.023 325.115C574.96 337.276 549.822 406.019 509.053 440.319C468.284 474.619 513.156 614.751 572.157 576.598C609.546 552.419 614.429 485.889 652.28 379.799C666.207 340.755 647.166 317.352 618.994 325.115H619.023Z" fill="#242C3D"/>
<path d="M81.8276 260.713C77.2335 268.619 71.3102 278.653 65.8493 287.71C56.6321 275.979 51.2578 267.354 51.8357 264.163C54.754 247.746 73.5928 252.634 73.5928 252.634C73.5928 252.634 76.6267 255.624 81.8276 260.713Z" fill="#242C3D"/>
<path d="M30.8876 435.518C29.154 445.092 27.2759 455.557 25.6289 464.901C18.8966 462.745 14.1003 460.732 11.7598 459.036C-6.73225 445.523 9.47723 432.298 9.47723 432.298C16.065 433.822 23.2307 434.857 30.8876 435.547V435.518Z" fill="#242C3D"/>
<path d="M746.503 842.774C743.816 841.451 736.881 832.395 727.462 818.45C734.656 813.62 744.538 806.749 752.773 800.999C756.587 809.308 759.303 814.971 760.574 817.042C769.387 831.388 760.083 849.415 746.532 842.774H746.503Z" fill="#242C3D"/>
<path d="M841.737 740.449C838.79 738.581 832.087 731.594 823.072 721.129C828.648 716.212 836.883 709.197 844.453 702.757C845.811 705.373 846.909 707.357 847.661 708.68C860.374 730.617 857.744 750.57 841.708 740.421L841.737 740.449Z" fill="#242C3D"/>
<path d="M676.262 172.016C657.799 172.016 643.063 167.272 635.695 158.935C631.534 154.22 626.218 144.013 637.515 128.775C661.613 96.2866 744.423 109.569 745.232 109.771C746.387 110.029 747.11 111.208 746.85 112.358C746.59 113.508 745.434 114.227 744.278 113.968C743.902 113.911 723.475 110.576 699.782 111.352C679.238 112.013 652.367 116.01 640.982 131.334C633.846 140.965 633.123 149.504 638.931 156.088C645.548 163.592 660.052 167.905 677.678 167.675C697.268 167.416 718.129 161.724 736.361 151.661C737.401 151.086 738.73 151.459 739.308 152.494C739.886 153.53 739.511 154.852 738.47 155.427C719.603 165.835 698.048 171.7 677.764 171.988C677.273 171.988 676.753 171.988 676.262 171.988V172.016Z" fill="black"/>
<path d="M698.51 151.546C686.317 151.546 675.626 149.102 667.594 144.358C666.553 143.754 666.236 142.432 666.842 141.397C667.449 140.362 668.778 140.045 669.819 140.649C679.816 146.543 694.494 148.584 711.166 146.399C726.364 144.387 740.869 139.068 749.97 132.196C750.924 131.478 752.282 131.65 753.004 132.599C753.726 133.548 753.553 134.899 752.6 135.618C742.92 142.92 727.664 148.556 711.744 150.654C707.207 151.258 702.786 151.546 698.539 151.546H698.51Z" fill="black"/>
<path d="M732.981 112.56C732.778 112.56 732.576 112.56 732.374 112.473C731.247 112.157 730.582 110.978 730.871 109.857C730.871 109.799 730.871 109.713 730.9 109.598C733.125 94.5328 755.518 77.1385 793.947 60.6355C795.045 60.1755 796.316 60.6643 796.807 61.7568C797.269 62.8493 796.778 64.1144 795.68 64.6031C743.902 86.8563 736.13 103.934 735.205 110.259C735.177 110.547 735.119 110.777 735.061 111.007C734.801 111.956 733.934 112.56 732.981 112.56ZM730.871 109.828C730.871 109.828 730.871 109.828 730.871 109.857C730.871 109.857 730.871 109.857 730.871 109.828Z" fill="black"/>
<path d="M803.453 197.26C783.111 197.26 764.648 190.647 751.588 180.9C750.635 180.182 750.432 178.83 751.155 177.882C751.877 176.933 753.235 176.731 754.189 177.45C776.408 193.982 815.039 201.026 851.214 179.463C894.555 153.645 930.066 115.118 930.441 114.745C931.25 113.853 932.608 113.796 933.504 114.601C934.4 115.406 934.458 116.757 933.649 117.648C933.302 118.051 897.358 157.008 853.468 183.172C836.767 193.119 819.518 197.26 803.482 197.26H803.453Z" fill="black"/>
<path d="M870.804 33.1785C868.175 33.1785 865.777 32.4885 864.39 31.0509C863.639 30.2746 861.53 27.4571 865.199 23.2594C868.522 19.4643 872.885 17.7968 876.901 18.8318C879.79 19.5793 882.015 21.6781 882.564 24.1507C883.027 26.3645 882.16 28.5496 880.137 30.1309C877.623 32.1434 874.012 33.1785 870.804 33.1785ZM868.493 26.077C867.713 26.997 867.308 27.8308 867.539 28.0608C868.695 29.2396 874.127 29.4121 877.45 26.767C878.172 26.192 878.461 25.617 878.346 25.042C878.201 24.3232 877.334 23.3744 875.832 23.0007C874.676 22.7132 871.7 22.4257 868.493 26.077Z" fill="black"/>
<path d="M752.831 847C750.75 847 748.266 846.367 745.376 844.614C741.851 842.486 732.114 831.705 688.282 762.789C661.555 720.784 631.563 671.907 613.649 642.725C604.778 628.292 597.757 616.821 596.89 615.642C596.197 614.866 596.168 613.658 596.89 612.824C597.67 611.904 599.028 611.789 599.953 612.566C600.473 612.997 600.56 613.083 617.376 640.483C635.29 669.665 665.253 718.513 691.98 760.489C731.94 823.309 744.336 838.921 747.659 840.934C751.386 843.176 754.275 843.291 756.529 841.25C761.383 836.822 761.846 824.402 758.638 817.99C753.264 807.18 680.683 645.37 677.591 638.47C677.302 637.838 677.36 637.09 677.707 636.486C678.429 635.25 750.173 513.231 758.754 454.608C758.927 453.43 760.025 452.625 761.21 452.797C762.395 452.97 763.204 454.062 763.03 455.241C759.39 480.254 744.538 518.723 718.88 569.641C701.717 603.739 685.219 632.231 681.983 637.751C688.282 651.811 757.396 805.8 762.51 816.093C766.469 824.057 765.977 838.461 759.419 844.441C758.147 845.62 755.951 847.029 752.831 847.029V847Z" fill="black"/>
<path d="M848.99 744.187C846.736 744.187 844.049 743.612 840.986 742.462C835.496 740.421 825.586 730.588 810.734 712.446C799.177 698.329 784.701 679.296 767.711 655.807C738.788 615.872 712.264 576.455 711.975 576.081C711.31 575.103 711.57 573.752 712.582 573.091C713.564 572.429 714.922 572.688 715.586 573.694C744.914 617.281 824.892 731.824 842.517 738.437C845.898 739.702 850.319 740.794 852.11 738.839C854.653 735.993 853.497 725.298 842.546 703.763C841.997 702.699 842.431 701.406 843.5 700.859C844.569 700.313 845.869 700.744 846.418 701.808C857.138 722.94 860.143 736.367 855.317 741.714C853.815 743.382 851.706 744.216 848.99 744.216V744.187Z" fill="black"/>
<path d="M246.349 500.293C219.738 500.293 183.736 497.418 143.834 491.984C91.4203 484.825 44.67 474.964 24.791 466.885C9.15935 460.531 0.837907 453.286 0.0577712 445.351C-0.809046 436.553 7.91691 430.716 8.26364 430.486C8.75484 430.17 9.36161 430.055 9.93949 430.17C48.3973 438.738 175.415 419.82 176.542 419.59C177.726 419.36 178.853 420.107 179.084 421.286C179.316 422.465 178.564 423.586 177.38 423.816C176.253 424.046 50.1598 442.792 9.93949 434.598C8.20585 435.978 3.84287 439.945 4.33407 444.948C4.94084 451.072 12.5688 457.282 26.409 462.889C45.6813 470.738 93.0962 480.714 144.383 487.729C200.582 495.406 248.95 497.936 273.741 494.515C274.926 494.342 276.023 495.176 276.197 496.355C276.37 497.533 275.532 498.626 274.348 498.798C266.922 499.833 257.445 500.322 246.321 500.322L246.349 500.293Z" fill="black"/>
<path d="M157.327 232.681C153.08 232.681 148.572 232.336 143.805 231.617C142.62 231.444 141.811 230.352 141.985 229.173C142.158 227.994 143.256 227.189 144.441 227.362C161.806 229.978 175.415 227.592 183.794 220.49C190.7 214.625 194.254 205.482 194.398 193.321C194.543 179.808 192.145 166.352 189.804 153.357C187.377 139.787 185.094 126.964 186.077 115.722C187.204 102.957 192.636 93.584 202.662 87.1151C216.444 78.2311 232.191 77.8285 244.789 85.9938C254.642 92.3765 261.923 103.647 265.911 118.626C270.447 135.733 270.678 157.238 266.604 182.597C266.402 183.775 265.304 184.58 264.119 184.379C262.935 184.178 262.126 183.085 262.328 181.907C269.667 136.193 262.415 102.554 242.449 89.6164C231.325 82.3999 217.34 82.8312 205.031 90.7377C185.297 103.446 189.371 126.216 194.08 152.61C196.45 165.806 198.877 179.463 198.732 193.378C198.588 206.862 194.514 217.098 186.626 223.797C179.662 229.691 169.665 232.709 157.327 232.709V232.681Z" fill="black"/>
<path d="M151.693 203.24C149.035 203.24 146.116 202.837 142.967 202.061C127.856 198.266 117.887 184.178 112.195 173.051C105.578 160.142 101.244 144.444 100.551 131.018C99.9729 119.776 107.168 103.561 114.102 87.8626C121.383 71.4458 129.618 52.8153 123.261 48.9914C120.372 47.2376 117.974 46.8351 116.154 47.7552C112.166 49.7965 110.693 57.7317 110.49 60.6355C110.404 61.7568 109.479 62.6193 108.352 62.6193C107.225 62.6193 106.301 61.7856 106.185 60.6643C105.896 57.7029 104.163 49.4515 99.684 46.7776C97.7192 45.5988 95.3499 45.5988 92.4894 46.7776C86.9995 49.0202 78.6781 57.1567 70.1255 83.1762C69.7788 84.2687 69.6054 84.7575 69.4898 85.045C69.0275 86.1375 67.7562 86.655 66.6582 86.2238C65.5603 85.7638 65.0402 84.4987 65.4736 83.4062C65.5314 83.2337 65.7625 82.5149 65.9937 81.8537C73.2461 59.7155 81.5964 46.5764 90.8136 42.7813C94.9743 41.085 98.7305 41.1712 101.909 43.0688C104.943 44.8801 106.936 48.1002 108.208 51.2628C109.392 48.2727 111.27 45.3401 114.16 43.8738C117.425 42.2062 121.239 42.6663 125.515 45.2538C135.108 51.0615 127.22 68.9158 118.061 89.5589C111.328 104.768 104.336 120.524 104.885 130.73C105.549 143.38 109.826 158.82 116.067 171.039C121.354 181.389 130.514 194.413 144.036 197.806C151.549 199.703 157.241 199.042 160.968 195.88C165.793 191.768 167.758 183.028 166.602 170.665C166.487 169.486 167.382 168.422 168.567 168.307C169.752 168.192 170.821 169.084 170.936 170.263C172.237 184.293 169.838 194.011 163.8 199.157C160.65 201.831 156.605 203.182 151.722 203.182L151.693 203.24Z" fill="black"/>
<path d="M86.4217 110.547C86.4217 110.547 86.2772 110.547 86.2194 110.547C85.0348 110.432 84.168 109.368 84.2835 108.189C85.4971 95.8841 89.9756 90.1627 94.7142 84.0962C99.1639 78.4036 103.758 72.5384 106.243 60.0605C106.474 58.8817 107.63 58.1342 108.786 58.3642C109.97 58.5942 110.721 59.7443 110.49 60.8943C107.803 74.3784 102.66 80.9336 98.1237 86.7413C93.5874 92.549 89.6578 97.5516 88.5887 108.621C88.4731 109.742 87.5485 110.576 86.4217 110.576V110.547Z" fill="black"/>
<path d="M336.99 615.958C331.095 615.958 324.536 615.326 317.226 613.859C294.776 609.288 272.181 595.056 253.631 573.809C237.97 555.869 226.297 533.932 223.176 516.566C222.974 515.388 223.754 514.266 224.939 514.065C226.124 513.864 227.251 514.64 227.453 515.819C230.429 532.466 241.726 553.598 256.925 570.992C274.868 591.549 296.596 605.263 318.122 609.662C337.741 613.658 354.817 611.703 367.473 603.998C377.008 598.19 380.822 591.117 380.851 591.031C381.4 589.967 382.7 589.565 383.769 590.111C384.838 590.657 385.242 591.951 384.693 593.015C384.52 593.331 380.417 601.065 369.958 607.505C363.081 611.732 352.361 615.987 336.99 615.987V615.958Z" fill="black"/>
<path d="M204.511 583.93C204.164 583.93 203.789 583.93 203.442 583.872C201.275 583.613 198.328 582.463 196.45 578.381C191.567 567.772 195.583 555.869 208.094 543.995C217.195 535.341 227.482 529.734 227.915 529.504C228.955 528.929 230.284 529.332 230.862 530.367C231.44 531.402 231.036 532.724 229.995 533.299C229.591 533.501 190.469 554.978 200.408 576.598C201.535 579.071 202.98 579.502 203.991 579.617C212.023 580.566 229.158 562.913 238.086 551.585C238.837 550.636 240.195 550.492 241.12 551.211C242.073 551.959 242.218 553.31 241.495 554.23C239.039 557.335 217.716 583.93 204.54 583.93H204.511Z" fill="black"/>
<path d="M283.912 652.817C283.912 652.817 283.68 652.817 283.565 652.817C280.098 652.759 276.948 651.293 274.261 648.475C260.999 634.646 261.577 590.37 261.808 581.63V581.543C261.808 580.365 262.819 579.416 264.032 579.445C265.217 579.445 266.171 580.451 266.142 581.63V581.773C265.622 600.548 267.384 635.077 277.381 645.543C279.288 647.527 281.311 648.504 283.651 648.562C286.656 648.619 288.968 647.613 290.702 645.457C297.607 636.774 293.273 612.163 290.991 603.423C290.702 602.273 291.395 601.094 292.551 600.806C293.707 600.519 294.891 601.209 295.18 602.359C295.527 603.739 303.733 635.997 294.082 648.13C291.568 651.293 288.159 652.874 283.912 652.874V652.817Z" fill="black"/>
<path d="M370.622 665.381C347.536 665.381 340.948 616.821 340.688 614.751C340.543 613.572 341.381 612.479 342.566 612.336C343.751 612.192 344.849 613.026 344.993 614.204C344.993 614.319 346.64 626.539 350.859 638.47C354.586 648.964 361.116 661.413 371.055 661.068C374.609 660.953 376.979 659.775 378.337 657.446C382.497 650.315 377.441 631.8 364.843 607.879C364.294 606.815 364.699 605.522 365.768 604.975C366.837 604.429 368.137 604.832 368.686 605.895C372.385 612.911 377.499 623.405 380.793 633.582C384.78 645.802 385.185 654.312 382.093 659.631C379.955 663.282 376.314 665.208 371.229 665.381C371.027 665.381 370.853 665.381 370.651 665.381H370.622Z" fill="black"/>
<path d="M783.863 95.1941C775.657 105.084 791.722 114.888 798.685 107.902C805.649 100.915 791.838 85.62 783.863 95.1941Z" fill="black"/>
<path d="M802.297 355.705C801.372 369.161 856.82 430.4 868.349 427.985C879.906 425.541 919.78 393.657 922.091 386.153C924.374 378.649 920.82 358.466 913.712 352.514C906.575 346.534 841.217 321.003 831.538 323.648C821.858 326.293 802.962 346.16 802.326 355.734L802.297 355.705Z" fill="#ABF79E"/>
<path d="M696.43 210.284C697.21 211.204 665.6 208.616 660.861 221.813C656.123 235.009 656.354 264.508 655.834 271.379C655.314 278.251 708.045 330.462 769.069 321.061C830.093 311.659 807.556 258.758 804.175 253.554C800.794 248.35 787.272 246.539 787.272 246.539L780.771 273.507C780.771 273.507 761.817 291.879 721.596 274.427C681.405 257.004 682.821 232.882 682.821 232.882L696.401 210.284H696.43Z" fill="#775A4A"/>
<path d="M752.513 282.477C743.151 282.477 733.558 280.982 724.89 278.107C705.705 271.724 687.819 257.493 681.405 243.462C678.371 236.821 677.995 230.381 680.336 224.832C680.798 223.739 682.07 223.222 683.167 223.682C684.265 224.142 684.786 225.407 684.323 226.499C682.445 230.956 682.792 236.073 685.335 241.68C691.287 254.704 708.103 268.015 726.248 274.024C734.801 276.871 743.845 278.222 752.455 278.222C769.56 278.222 784.961 272.903 791.462 263.444C792.126 262.466 793.484 262.208 794.467 262.869C795.449 263.53 795.709 264.882 795.045 265.859C789.642 273.737 779.124 279.286 765.457 281.471C761.297 282.132 756.934 282.477 752.513 282.477Z" fill="black"/>
<path d="M769.098 321.061C768.867 321.952 796.807 350.214 813.941 339.49C821.801 334.574 820.327 317.122 812.063 300.13C802.326 280.119 784.123 261.575 774.992 276.957C774.992 276.957 814.664 317.582 803.915 327.961C801.141 330.635 787.763 324.741 784.181 317.352C776.784 319.882 769.127 321.061 769.127 321.061H769.098Z" fill="#ABF79E"/>
<path d="M861.876 400.442C861.443 406.364 866.586 414.616 872.567 411.166C878.548 407.716 914.174 381.782 915.214 375.63C916.255 369.477 912.209 358.696 898.254 367.005C884.327 375.285 862.454 392.765 861.876 400.442Z" fill="black"/>
<path d="M818.94 331.67C818.651 331.67 818.333 331.612 818.044 331.469C816.946 330.98 816.484 329.686 816.975 328.622C822.956 315.569 806.602 287.969 792.618 275.749C789.786 273.277 785.683 270.517 782.302 271.494C779.76 272.213 778.228 274.801 777.535 276.353C793.716 290.844 812.67 318.473 805.707 329.14C804.724 330.635 803.251 331.497 801.43 331.612C801.286 331.612 801.17 331.612 801.026 331.612C793.456 331.612 782.591 318.876 782.476 318.761C781.696 317.841 781.811 316.489 782.736 315.713C783.66 314.937 785.018 315.052 785.799 315.972C790.479 321.492 797.934 327.501 801.17 327.3C801.604 327.3 801.835 327.127 802.066 326.782C804.291 323.39 802.008 315.368 795.912 305.363C790.104 295.76 781.522 285.525 773.519 278.596C772.883 278.049 772.623 277.187 772.854 276.353C772.941 276.066 775.05 269.079 781.06 267.325C785.307 266.089 790.162 267.843 795.478 272.472C810.59 285.697 828.013 314.851 820.905 330.376C820.529 331.181 819.749 331.641 818.94 331.641V331.67Z" fill="black"/>
<path d="M760.95 295.214C749.595 295.214 733.501 293.287 713.968 285.812C692.529 277.589 666.871 257.205 662.826 238.632C661.237 231.329 663.115 224.745 668.229 219.541C669.067 218.679 670.425 218.679 671.292 219.541C672.159 220.375 672.159 221.755 671.292 222.589C667.189 226.758 665.744 231.847 667.016 237.741C668.692 245.417 674.962 254.359 684.699 262.927C693.772 270.919 705.011 277.791 715.5 281.816C737.835 290.384 755.46 291.419 766.295 290.757C778.026 290.067 784.585 287.307 784.643 287.278C785.741 286.818 787.012 287.307 787.503 288.4C787.966 289.492 787.503 290.757 786.377 291.217C786.088 291.332 779.24 294.236 766.844 295.012C765.053 295.127 763.088 295.185 760.95 295.185V295.214Z" fill="black"/>
<path d="M751.704 324.597C733.876 324.597 716.973 320.658 708.19 314.391C707.207 313.701 707.005 312.349 707.698 311.372C708.392 310.394 709.75 310.193 710.732 310.883C719.111 316.863 735.928 320.543 753.611 320.256C773.201 319.939 789.584 314.908 798.512 306.484C799.379 305.679 800.766 305.708 801.575 306.57C802.384 307.433 802.355 308.813 801.488 309.618C791.78 318.789 774.328 324.223 753.669 324.568C753.033 324.568 752.368 324.568 751.733 324.568L751.704 324.597Z" fill="black"/>
<path d="M852.139 398.602C851.59 398.602 851.07 398.401 850.665 398.027C834.138 382.53 808.914 358.954 806.92 357.546C805.938 356.913 805.649 355.591 806.256 354.584C806.891 353.578 808.22 353.262 809.232 353.894C811.196 355.102 840.35 382.444 851.879 393.225C856.907 386.843 874.445 366.746 906.142 352.572C907.24 352.083 908.511 352.572 909.002 353.664C909.493 354.757 909.002 356.022 907.904 356.511C871.642 372.697 854.104 397.423 853.931 397.682C853.584 398.199 853.006 398.544 852.37 398.602C852.284 398.602 852.226 398.602 852.139 398.602Z" fill="black"/>
<path d="M867.048 430.285C863.957 430.285 860.056 428.589 855.173 425.168C845.898 418.612 832.896 405.358 820.385 389.718C810.965 377.93 800.737 363.267 800.217 357.431C799.697 351.594 803.597 343.17 810.647 334.861C815.993 328.565 824.256 321.377 831.393 320.083C832.578 319.882 833.705 320.658 833.907 321.808C834.109 322.987 833.329 324.108 832.173 324.31C821.252 326.265 803.684 347.051 804.551 357.028C804.84 360.334 811.543 371.662 823.794 386.986C836.045 402.311 848.73 415.248 857.716 421.602C864.13 426.116 866.933 426.088 867.829 425.858C873.723 424.363 885.223 417.405 897.127 408.147C909.031 398.889 918.046 389.89 920.098 385.261C920.589 384.169 921.86 383.68 922.958 384.14C924.056 384.629 924.547 385.894 924.085 386.986C920.56 395.037 904.61 407.831 899.814 411.568C889.99 419.216 876.699 428.071 868.898 430.055C868.32 430.199 867.713 430.285 867.077 430.285H867.048Z" fill="black"/>
<path d="M863.639 424.506C863.032 424.506 862.425 424.247 862.021 423.759C850.723 410.907 850.001 397.107 849.972 396.532C849.914 395.353 850.839 394.347 852.052 394.289C853.237 394.232 854.248 395.152 854.306 396.359C854.306 396.532 855.057 409.297 865.286 420.941C866.066 421.832 865.979 423.212 865.084 423.989C864.679 424.334 864.159 424.535 863.668 424.535L863.639 424.506Z" fill="black"/>
</g>
<defs>
<clipPath id="clip0_13_219">
<rect width="960" height="847" fill="white"/>
</clipPath>
</defs>
</svg>
